# xmcd
#
# Track frame offsets: 
#        150
#        12968
#        25793
#        39997
#        58060
#        71777
#        90391
#        105661
#        133588
#        155594
#        169324
#        188892
#        201260
#        235902
#        265376
#        292892
#        314020
#
# Disc length: 4405 seconds
#
# Revision: 0
# Processed by: cddbd v1.5.2PL0 Copyright (c) Steve Scherf et al.
# Submitted via: ExactAudioCopy v1.3
#
DISCID=f2113311
DTITLE=Steve Earle - Live Train a Comin'
DYEAR=1900
DGENRE=Bluegrass
TTITLE0=Mystery Train Part II
TTITLE1=Hometown Blues
TTITLE2=Devil's Right Hand
TTITLE3=Tom Ames Prayer
TTITLE4=Angel Is The Devil
TTITLE5=Sometimes She Forgets
TTITLE6=You Know The Rest
TTITLE7=Goodbye
TTITLE8=Now She's Gone
TTITLE9=My Old Friend The Blues
TTITLE10=Someday
TTITLE11=South Nashville Blues
TTITLE12=Little Rock and Roller
TTITLE13=Regular Guy
TTITLE14=Ellis Unit One
TTITLE15=I Ain't Ever Satisfied
TTITLE16=Rivers Of Babylon
EXTD=
EXTT0=
EXTT1=
EXTT2=
EXTT3=
EXTT4=
EXTT5=
EXTT6=
EXTT7=
EXTT8=
EXTT9=
EXTT10=
EXTT11=
EXTT12=
EXTT13=
EXTT14=
EXTT15=
EXTT16=
PLAYORDER=
